<svg version="1.1" xmlns="http://www.w3.org/2000/svg" xmlns:xlink="http://www.w3.org/1999/xlink" width="128.70359" height="152.76178" viewBox="0,0,128.70359,152.76178"><defs><linearGradient x1="739.58608" y1="298.2659" x2="725.37805" y2="300.56216" gradientUnits="userSpaceOnUse" id="color-1"><stop offset="0" stop-color="#ffa800" stop-opacity="0"/><stop offset="1" stop-color="#ffa800"/></linearGradient><linearGradient x1="739.71785" y1="298.28176" x2="725.50982" y2="300.57802" gradientUnits="userSpaceOnUse" id="color-2"><stop offset="0" stop-color="#0018ff" stop-opacity="0"/><stop offset="1" stop-color="#0018ff"/></linearGradient></defs><g transform="translate(-613.31051,-243.15234)"><g data-paper-data="{&quot;isPaintingLayer&quot;:true}" fill-rule="nonzero" stroke-linejoin="miter" stroke-miterlimit="10" stroke-dasharray="" stroke-dashoffset="0" style="mix-blend-mode: normal"><path d="M737.28982,284.05787l2.32152,14.3643l-14.23329,2.13999z" data-paper-data="{&quot;index&quot;:null}" fill="url(#color-1)" stroke="none" stroke-width="0" stroke-linecap="butt"/><path d="M725.50982,300.57802l14.18277,-2.45253l2.32152,14.3643z" data-paper-data="{&quot;index&quot;:null}" fill="url(#color-2)" stroke="none" stroke-width="0" stroke-linecap="butt"/><path d="M724.74768,292.28896c1.10553,0.39428 3.65906,3.73092 2.42559,4.74551c-0.02366,0.07238 -0.05053,0.14341 -0.08046,0.2129c0.93657,2.21281 3.30144,7.95706 0.64919,9.97782c-1.97322,1.5034 -2.99892,-0.76857 -4.38662,-1.71007c-1.21423,-0.82382 -2.91424,0.03903 -4.15515,-0.39263c-1.62318,-0.56464 -3.0049,-3.92564 -3.4823,-5.52836c-0.93439,-3.13691 5.5525,-8.5453 9.02974,-7.30518z" data-paper-data="{&quot;index&quot;:null}" fill="#000000" stroke="none" stroke-width="0.5" stroke-linecap="butt"/><path d="M715.72765,298.0529l3.77364,-5.34421l4.51931,-0.7304l2.94775,2.17425l2.19459,13.57898" data-paper-data="{&quot;index&quot;:null}" fill="none" stroke="#000000" stroke-width="1.5" stroke-linecap="round"/><path d="M679.88267,312.75745l-1.44714,-8.9541l37.19111,-6.01072l1.44714,8.9541z" data-paper-data="{&quot;index&quot;:null}" fill="#383838" stroke="#000000" stroke-width="1.5" stroke-linecap="butt"/><path d="M653.46656,301.67409c-0.91736,-5.67611 -2.02504,-11.81571 -1.03053,-15.2705c0.70479,-2.44833 3.09622,-3.08294 4.55324,-3.31842c1.74345,-0.28177 4.42567,-1.19751 6.08156,1.75313c1.6807,2.99484 2.32789,9.89439 3.11745,14.77975c0.50806,3.14361 14.99869,-0.44307 20.62132,-0.29857c5.28097,0.13572 -1.42323,11.8914 -2.72809,12.10228c-2.27211,0.36721 -15.9989,3.91177 -24.02979,1.50827c-4.386,-1.31265 -6.03147,-7.83011 -6.58514,-11.25594z" data-paper-data="{&quot;index&quot;:null}" fill="#1a1a1a" stroke="#000000" stroke-width="2.5" stroke-linecap="butt"/><path d="M662.49742,302.57779c3.34582,-5.48115 7.81286,-6.47258 17.17531,-7.98571c13.53038,-2.18674 27.12567,1.04931 27.12567,1.04931l-17.36371,19.19447c0,0 -25.67136,3.66572 -27.03543,-4.77443c-0.42019,-2.59993 -1.39132,-5.04356 0.09816,-7.48363z" data-paper-data="{&quot;index&quot;:null}" fill="#ffffff" stroke="none" stroke-width="0" stroke-linecap="butt"/><path d="M709.69689,310.89856c-0.62632,-3.87534 3.36003,-11.36543 8.87931,-12.25744c1.79451,-0.29002 3.90647,0.22835 5.07918,1.67946c0.72936,0.9025 0.52606,2.58284 1.39155,3.38341c2.02294,1.8712 5.14175,2.26828 5.43778,4.09995c0.62632,3.87534 -4.12112,3.97902 -9.64039,4.87103c-5.51927,0.89201 -10.52109,2.09893 -11.14741,-1.77641z" data-paper-data="{&quot;index&quot;:null}" fill="#ffffff" stroke="none" stroke-width="0" stroke-linecap="butt"/><path d="M714.4619,312.01841c-0.68862,0.11129 -1.33897,-0.36839 -1.45259,-1.07142c-0.11362,-0.70302 0.35251,-1.36315 1.04113,-1.47445c0.68862,-0.11129 1.33897,0.36839 1.45259,1.07142c0.11362,0.70302 -0.35251,1.36315 -1.04113,1.47445z" data-paper-data="{&quot;index&quot;:null}" fill="#000000" stroke="none" stroke-width="0" stroke-linecap="butt"/><path d="M714.59604,309.84015l0.10491,0.64913" data-paper-data="{&quot;index&quot;:null}" fill="none" stroke="#ffffff" stroke-width="0.5" stroke-linecap="round"/><path d="M713.6423,309.99429l0.09507,0.58827" data-paper-data="{&quot;index&quot;:null}" fill="#ffffff" stroke="#ffffff" stroke-width="0.5" stroke-linecap="round"/><path d="M714.29615,311.39075c-0.13351,0.02158 -0.2596,-0.07143 -0.28163,-0.20773c-0.02203,-0.1363 0.06835,-0.26429 0.20186,-0.28587c0.13351,-0.02158 0.2596,0.07143 0.28163,0.20773c0.02203,0.1363 -0.06835,0.26429 -0.20186,0.28587z" data-paper-data="{&quot;index&quot;:null}" fill="#ffffff" stroke="none" stroke-width="0.5" stroke-linecap="butt"/><path d="M641.61792,293.34754c-13.23971,0 -23.97261,-10.73289 -23.97261,-23.9726c0,-13.2397 10.73291,-23.9726 23.97261,-23.9726c13.23971,0 23.97261,10.73289 23.97261,23.9726c0,13.2397 -10.73291,23.9726 -23.97261,23.9726z" data-paper-data="{&quot;index&quot;:null}" fill="#ffc366" stroke="#000000" stroke-width="4.5" stroke-linecap="butt"/><path d="M658.71356,265.97056v7.12545" data-paper-data="{&quot;index&quot;:null}" fill="none" stroke="#000000" stroke-width="4.5" stroke-linecap="round"/><path d="M653.7445,264.93925v6.37539" data-paper-data="{&quot;index&quot;:null}" fill="none" stroke="#000000" stroke-width="4.5" stroke-linecap="round"/><path d="M634.9561,279.82371h26.72042" data-paper-data="{&quot;index&quot;:null}" fill="none" stroke="#000000" stroke-width="4.5" stroke-linecap="round"/><path d="M630.97269,360.58656c0,0 -5.7448,-34.3533 -5.7448,-50.81331c0,-2.57012 -2.99927,-5.86303 -2.99927,-7.31592c0,-4.17023 0,-8.68023 0,-8.68023h37.5961c0,0 0,4.71418 0,9.02117c0,1.43188 -3.18943,4.06043 -3.18943,6.54355c0,16.36092 -7.20948,50.87883 -7.20948,50.87883z" data-paper-data="{&quot;index&quot;:null}" fill="#000000" stroke="#000000" stroke-width="4.5" stroke-linecap="butt"/><path d="M640.16717,363.29457c13.58988,0 24.60666,1.67913 24.60666,3.75045c0,2.07132 -11.01678,3.75046 -24.60666,3.75046c-13.58988,0 -24.60666,-1.67914 -24.60666,-3.75046c0,-2.07132 11.01678,-3.75045 24.60666,-3.75045z" data-paper-data="{&quot;index&quot;:null}" fill="none" stroke-opacity="0.64706" stroke="#00cad4" stroke-width="4.5" stroke-linecap="butt"/><path d="M640.89897,377.5646c8.53787,0 15.4592,1.39245 15.4592,3.11013c0,1.71768 -6.92132,3.11014 -15.4592,3.11014c-8.53788,0 -15.4592,-1.39246 -15.4592,-3.11014c0,-1.71768 6.92132,-3.11013 15.4592,-3.11013z" data-paper-data="{&quot;index&quot;:null}" fill="none" stroke-opacity="0.64706" stroke="#00cad4" stroke-width="4.5" stroke-linecap="butt"/><path d="M641.26487,391.10284c1.7682,0 3.20161,0.57336 3.20161,1.28064c0,0.70728 -1.43341,1.28064 -3.20161,1.28064c-1.7682,0 -3.20161,-0.57336 -3.20161,-1.28064c0,-0.70728 1.43341,-1.28064 3.20161,-1.28064z" data-paper-data="{&quot;index&quot;:null}" fill="none" stroke-opacity="0.64706" stroke="#00cad4" stroke-width="4.5" stroke-linecap="butt"/><path d="M640.48658,324.91369l-6.65145,-31.90527h13.3029z" data-paper-data="{&quot;index&quot;:null}" fill="#ffffff" stroke="none" stroke-width="0" stroke-linecap="butt"/><path d="M640.56734,327.23216l-3.72864,-16.74904l3.72864,-16.74902l3.72863,16.74902z" data-paper-data="{&quot;index&quot;:null}" fill="#ff0000" stroke="#000000" stroke-width="1" stroke-linecap="butt"/><path d="M640.67943,300.74218l-3.72864,-3.72864l3.72864,-3.72863l3.72864,3.72863z" data-paper-data="{&quot;index&quot;:null}" fill="#ff0000" stroke="#000000" stroke-width="1" stroke-linecap="butt"/><path d="M647.55533,305.54304v-6.37539h8.9068v6.37539z" data-paper-data="{&quot;index&quot;:null}" fill="#1a1a1a" stroke="#101010" stroke-width="0.5" stroke-linecap="butt"/><path d="M653.90947,303.16667l-3.86037,-3.86037" data-paper-data="{&quot;index&quot;:null}" fill="none" stroke="#ff0000" stroke-width="0.5" stroke-linecap="round"/><path d="M655.42603,305.64833l-5.18392,-5.18392" data-paper-data="{&quot;index&quot;:null}" fill="none" stroke="#0046ff" stroke-width="0.5" stroke-linecap="round"/><path d="M615.03939,311.86371c-0.20971,-2.5391 1.801,-3.98089 3.07969,-4.71799c1.53006,-0.882 3.71291,-2.6898 6.30792,-0.51859c2.63389,2.20373 6.02074,9.88745 8.49221,14.17488c1.59033,2.75885 36.35756,-13.09901 41.66569,-14.95877c4.98557,-1.74674 7.88674,9.2507 6.74159,9.91081c-1.99402,1.14944 -41.39437,17.60635 -49.75557,18.20848c-4.56639,0.32885 -8.41714,-5.18083 -10.15024,-8.18736c-2.8715,-4.98139 -6.08539,-10.32859 -6.3813,-13.91148z" data-paper-data="{&quot;index&quot;:null}" fill="#1a1a1a" stroke="#000000" stroke-width="2.5" stroke-linecap="butt"/><path d="M683.13055,302.72539c2.84997,-1.64286 6.43048,-0.77126 7.99729,1.94677c1.5668,2.71803 0.52657,6.25324 -2.3234,7.8961c-2.84997,1.64286 -6.43048,0.77126 -7.99729,-1.94677c-1.5668,-2.71803 -0.52657,-6.25324 2.3234,-7.8961z" data-paper-data="{&quot;index&quot;:null}" fill="#ffc366" stroke="#000000" stroke-width="4.5" stroke-linecap="butt"/></g></g></svg>