<svg version="1.1" xmlns="http://www.w3.org/2000/svg" xmlns:xlink="http://www.w3.org/1999/xlink" width="155.52662" height="152.76178" viewBox="0,0,155.52662,152.76178"><defs><linearGradient x1="765.41988" y1="321.43119" x2="722.07457" y2="321.43119" gradientUnits="userSpaceOnUse" id="color-1"><stop offset="0" stop-color="#b1b9ff" stop-opacity="0"/><stop offset="1" stop-color="#b1b9ff"/></linearGradient></defs><g transform="translate(-609.89323,-243.15234)"><g data-paper-data="{&quot;isPaintingLayer&quot;:true}" fill-rule="nonzero" stroke-linejoin="miter" stroke-miterlimit="10" stroke-dasharray="" stroke-dashoffset="0" style="mix-blend-mode: normal"><path d="M722.07457,321.43119l43.34529,-41.73581v85.08109z" data-paper-data="{&quot;index&quot;:null}" fill="url(#color-1)" stroke="none" stroke-width="0" stroke-linecap="butt"/><path d="M723.64253,315.61092c1.02846,0.56561 3.01693,4.26692 1.63739,5.07172c-0.03491,0.06768 -0.07276,0.13351 -0.1134,0.19734c0.57153,2.33389 1.98963,8.38187 -0.95105,9.95358c-2.18781,1.16932 -2.83788,-1.23719 -4.05759,-2.38804c-1.06724,-1.00699 -2.88314,-0.42643 -4.03928,-1.05054c-1.5123,-0.81638 -2.34008,-4.35478 -2.55566,-6.01313c-0.42194,-3.24581 6.84475,-7.54995 10.07959,-5.77094z" data-paper-data="{&quot;index&quot;:null}" fill="#000000" stroke="none" stroke-width="0.5" stroke-linecap="butt"/><path d="M713.81842,319.86191l4.57795,-4.67368h4.57795l2.5631,2.6167v13.75518" data-paper-data="{&quot;index&quot;:null}" fill="none" stroke="#000000" stroke-width="1.5" stroke-linecap="round"/><path d="M676.08654,328.65915v-9.07029h37.6737v9.07029z" data-paper-data="{&quot;index&quot;:null}" fill="#383838" stroke="#000000" stroke-width="1.5" stroke-linecap="butt"/><path d="M651.77713,313.50316c0,-5.74976 -0.11394,-11.98744 1.41903,-15.23931c1.08638,-2.30452 3.54843,-2.54946 5.02436,-2.54946c1.76607,0 4.56004,-0.47607 5.72395,2.70097c1.18135,3.22463 0.71945,10.13905 0.71945,15.08781c0,3.1844 14.87725,1.9556 20.4048,2.99532c5.19167,0.97654 -3.30223,11.512 -4.62402,11.512c-2.30159,0 -16.41807,1.30909 -23.96262,-2.34493c-4.12039,-1.99561 -4.70494,-8.69211 -4.70494,-12.16239z" data-paper-data="{&quot;index&quot;:null}" fill="#1a1a1a" stroke="#000000" stroke-width="2.5" stroke-linecap="butt"/><path d="M660.54812,315.83613c4.17746,-4.87712 8.74546,-5.14315 18.22939,-5.14315c13.70595,0 26.61079,5.36368 26.61079,5.36368l-20.2037,16.17827c0,0 -25.92737,-0.47702 -25.92737,-9.02669c0,-2.63367 -0.56881,-5.20093 1.29089,-7.37211z" data-paper-data="{&quot;index&quot;:null}" fill="#ffffff" stroke="none" stroke-width="0" stroke-linecap="butt"/><path d="M705.81543,331.58083c0,-3.92563 5.13031,-10.68376 10.7212,-10.68376c1.8178,0 3.82,0.84869 4.74617,2.46831c0.57603,1.00731 0.10724,2.63369 0.83391,3.56209c1.69848,2.16998 4.71399,3.05957 4.71399,4.91501c0,3.92563 -4.70317,3.27054 -10.29406,3.27054c-5.59089,0 -10.7212,0.39344 -10.7212,-3.53219z" data-paper-data="{&quot;index&quot;:null}" fill="#ffffff" stroke="none" stroke-width="0" stroke-linecap="butt"/><path d="M710.34074,333.44658c-0.69756,0 -1.26304,-0.5773 -1.26304,-1.28945c0,-0.71214 0.56548,-1.28945 1.26304,-1.28945c0.69756,0 1.26304,0.5773 1.26304,1.28945c0,0.71214 -0.56548,1.28945 -1.26304,1.28945z" data-paper-data="{&quot;index&quot;:null}" fill="#000000" stroke="none" stroke-width="0" stroke-linecap="butt"/><path d="M710.82069,331.31763v0.65755" data-paper-data="{&quot;index&quot;:null}" fill="none" stroke="#ffffff" stroke-width="0.5" stroke-linecap="round"/><path d="M709.85458,331.31763v0.5959" data-paper-data="{&quot;index&quot;:null}" fill="#ffffff" stroke="#ffffff" stroke-width="0.5" stroke-linecap="round"/><path d="M710.27725,332.80052c-0.13524,0 -0.24488,-0.11193 -0.24488,-0.25c0,-0.13807 0.10964,-0.25 0.24488,-0.25c0.13524,0 0.24488,0.11193 0.24488,0.25c0,0.13807 -0.10964,0.25 -0.24488,0.25z" data-paper-data="{&quot;index&quot;:null}" fill="#ffffff" stroke="none" stroke-width="0.5" stroke-linecap="butt"/><path d="M641.61792,293.34754c-13.23971,0 -23.97261,-10.73289 -23.97261,-23.9726c0,-13.2397 10.73291,-23.9726 23.97261,-23.9726c13.23971,0 23.97261,10.73289 23.97261,23.9726c0,13.2397 -10.73291,23.9726 -23.97261,23.9726z" data-paper-data="{&quot;index&quot;:null}" fill="#ffc366" stroke="#000000" stroke-width="4.5" stroke-linecap="butt"/><path d="M649.76953,257.60357v7.12545" data-paper-data="{&quot;index&quot;:null}" fill="none" stroke="#000000" stroke-width="4.5" stroke-linecap="round"/><path d="M644.80047,256.57226v6.37539" data-paper-data="{&quot;index&quot;:null}" fill="none" stroke="#000000" stroke-width="4.5" stroke-linecap="round"/><path d="M634.9561,279.82371h26.72042" data-paper-data="{&quot;index&quot;:null}" fill="none" stroke="#000000" stroke-width="4.5" stroke-linecap="round"/><path d="M630.97269,360.58656c0,0 -5.7448,-34.3533 -5.7448,-50.81331c0,-2.57012 -2.99927,-5.86303 -2.99927,-7.31592c0,-4.17023 0,-8.68023 0,-8.68023h37.5961c0,0 0,4.71418 0,9.02117c0,1.43188 -3.18943,4.06043 -3.18943,6.54355c0,16.36092 -7.20948,50.87883 -7.20948,50.87883z" data-paper-data="{&quot;index&quot;:null}" fill="#000000" stroke="#000000" stroke-width="4.5" stroke-linecap="butt"/><path d="M640.16717,363.29457c13.58988,0 24.60666,1.67913 24.60666,3.75045c0,2.07132 -11.01678,3.75046 -24.60666,3.75046c-13.58988,0 -24.60666,-1.67914 -24.60666,-3.75046c0,-2.07132 11.01678,-3.75045 24.60666,-3.75045z" data-paper-data="{&quot;index&quot;:null}" fill="none" stroke-opacity="0.64706" stroke="#00cad4" stroke-width="4.5" stroke-linecap="butt"/><path d="M640.89897,377.5646c8.53787,0 15.4592,1.39245 15.4592,3.11013c0,1.71768 -6.92132,3.11014 -15.4592,3.11014c-8.53788,0 -15.4592,-1.39246 -15.4592,-3.11014c0,-1.71768 6.92132,-3.11013 15.4592,-3.11013z" data-paper-data="{&quot;index&quot;:null}" fill="none" stroke-opacity="0.64706" stroke="#00cad4" stroke-width="4.5" stroke-linecap="butt"/><path d="M641.26487,391.10284c1.7682,0 3.20161,0.57336 3.20161,1.28064c0,0.70728 -1.43341,1.28064 -3.20161,1.28064c-1.7682,0 -3.20161,-0.57336 -3.20161,-1.28064c0,-0.70728 1.43341,-1.28064 3.20161,-1.28064z" data-paper-data="{&quot;index&quot;:null}" fill="none" stroke-opacity="0.64706" stroke="#00cad4" stroke-width="4.5" stroke-linecap="butt"/><path d="M640.48658,324.91369l-6.65145,-31.90527h13.3029z" data-paper-data="{&quot;index&quot;:null}" fill="#ffffff" stroke="none" stroke-width="0" stroke-linecap="butt"/><path d="M640.56734,327.23216l-3.72864,-16.74904l3.72864,-16.74902l3.72863,16.74902z" data-paper-data="{&quot;index&quot;:null}" fill="#ff0000" stroke="#000000" stroke-width="1" stroke-linecap="butt"/><path d="M640.67943,300.74218l-3.72864,-3.72864l3.72864,-3.72863l3.72864,3.72863z" data-paper-data="{&quot;index&quot;:null}" fill="#ff0000" stroke="#000000" stroke-width="1" stroke-linecap="butt"/><path d="M647.55533,305.54304v-6.37539h8.9068v6.37539z" data-paper-data="{&quot;index&quot;:null}" fill="#1a1a1a" stroke="#101010" stroke-width="0.5" stroke-linecap="butt"/><path d="M653.90947,303.16667l-3.86037,-3.86037" data-paper-data="{&quot;index&quot;:null}" fill="none" stroke="#ff0000" stroke-width="0.5" stroke-linecap="round"/><path d="M655.42603,305.64833l-5.18392,-5.18392" data-paper-data="{&quot;index&quot;:null}" fill="none" stroke="#0046ff" stroke-width="0.5" stroke-linecap="round"/><path d="M612.56226,298.01255c1.08637,-2.30452 3.54843,-2.54946 5.02436,-2.54946c1.76607,0 4.56005,-0.47607 5.72395,2.70097c1.18134,3.22463 0.27824,11.57297 0.27824,16.52173c0,3.1844 38.0407,6.8089 43.56826,7.84862c5.19166,0.97654 2.21288,11.95321 0.89109,11.95321c-2.30159,0 -44.65544,-5.41935 -52.19999,-9.07337c-4.12039,-1.99561 -4.70494,-8.69211 -4.70494,-12.16239c0,-5.74976 -0.11394,-11.98744 1.41903,-15.23931z" data-paper-data="{&quot;index&quot;:null}" fill="#1a1a1a" stroke="#000000" stroke-width="2.5" stroke-linecap="butt"/><path d="M676.11781,324.10101c3.28958,0 5.95632,2.54327 5.95632,5.68056c0,3.13728 -2.66674,5.68056 -5.95632,5.68056c-3.28958,0 -5.95632,-2.54327 -5.95632,-5.68056c0,-3.13728 2.66674,-5.68056 5.95632,-5.68056z" data-paper-data="{&quot;index&quot;:null}" fill="#ffc366" stroke="#000000" stroke-width="4.5" stroke-linecap="butt"/></g></g></svg>