<svg version="1.1" xmlns="http://www.w3.org/2000/svg" xmlns:xlink="http://www.w3.org/1999/xlink" width="106.2805" height="130.65756" viewBox="0,0,106.2805,130.65756"><g transform="translate(-614.1116,-281.98729)"><g data-paper-data="{&quot;isPaintingLayer&quot;:true}" fill-rule="nonzero" stroke-linejoin="miter" stroke-miterlimit="10" stroke-dasharray="" stroke-dashoffset="0" style="mix-blend-mode: normal"><path d="M652.34965,340.73354c-0.27606,-2.53275 1.69625,-4.02664 2.95522,-4.79694c1.50646,-0.92172 3.64127,-2.786 6.2922,-0.68342c2.69064,2.13407 6.27733,9.72657 8.86012,13.94788c1.66196,2.7163 10.75463,-0.14962 16.01229,-2.14759c4.93817,-1.87656 7.69769,9.82054 6.5702,10.51039c-1.96326,1.20121 -15.24346,4.00785 -23.58604,4.8285c-4.55623,0.44819 -8.54979,-4.95887 -10.36095,-7.91903c-3.00083,-4.90457 -6.3535,-10.16586 -6.74304,-13.73978z" data-paper-data="{&quot;index&quot;:null}" fill="#1a1a1a" stroke="#000000" stroke-width="2.5" stroke-linecap="butt"/><path d="M641.61795,332.18249c-13.23971,0 -23.97261,-10.73289 -23.97261,-23.9726c0,-13.2397 10.73291,-23.9726 23.97261,-23.9726c13.23971,0 23.97261,10.73289 23.97261,23.9726c0,13.2397 -10.73291,23.9726 -23.97261,23.9726z" data-paper-data="{&quot;index&quot;:null}" fill="#ffc366" stroke="#000000" stroke-width="4.5" stroke-linecap="butt"/><path d="M649.76956,303.56397v-7.12545" data-paper-data="{&quot;index&quot;:null}" fill="none" stroke="#000000" stroke-width="0.5" stroke-linecap="round"/><path d="M644.80049,295.40721v6.37539" data-paper-data="{&quot;index&quot;:null}" fill="none" stroke="#000000" stroke-width="0.5" stroke-linecap="round"/><path d="M634.95611,318.65866h26.72042" data-paper-data="{&quot;index&quot;:null}" fill="none" stroke="#000000" stroke-width="4.5" stroke-linecap="round"/><path d="M630.97272,399.42151c0,0 -8.74407,-56.67634 -8.74407,-58.12923c0,-4.17023 0,-8.68023 0,-8.68023c0,0 23.71439,-4.75145 37.5961,0c1.57263,0.53828 0,4.71418 0,9.02117c0,1.43188 -10.39891,58.02244 -10.39891,58.02244c0,0 -6.07786,-25.48855 -9.29052,-25.52931c-2.90797,-0.0369 -9.1626,25.29516 -9.1626,25.29516z" data-paper-data="{&quot;index&quot;:null}" fill="#000000" stroke="#000000" stroke-width="4.5" stroke-linecap="butt"/><path d="M631.25613,347.94011l0.06466,-3.49153c0,0 3.04181,-7.05532 4.78245,-6.28325c1.75781,0.77968 3.94637,1.75719 3.94637,1.75719l1.35782,-3.10359l1.35782,3.03893c0,0 2.14668,-1.44261 3.52707,-1.89857c2.72583,-0.90037 5.65436,6.6186 5.65436,6.6186l0.06466,3.36222c0,0 -4.95331,-3.55619 -8.08224,-3.55619c-1.6982,0 -1.27761,3.62085 -2.52166,3.62085c-1.24312,0 -0.77908,-3.62085 -2.39235,-3.62085c-2.76621,0 -7.75895,3.55619 -7.75895,3.55619z" fill="#ff0000" stroke="#000000" stroke-width="1" stroke-linecap="butt"/><path d="M621.97309,350.98678l1.70176,11.28198" fill="none" stroke="#000000" stroke-width="1" stroke-linecap="round"/><path d="M632.87877,363.76735l-0.87214,-4.36072" fill="none" stroke="#000000" stroke-width="1" stroke-linecap="round"/><path d="M648.83901,369.69793l-15.00087,-15.00087" fill="none" stroke="#2d00ff" stroke-width="2" stroke-linecap="round"/><path d="M644.34746,358.92695l4.31711,-4.31711" fill="none" stroke="#2d00ff" stroke-width="2" stroke-linecap="round"/><path d="M638.37326,364.72671l-5.36368,5.36369" fill="none" stroke="#2d00ff" stroke-width="2" stroke-linecap="round"/><path d="M638.77226,290.36495l11.42175,1.87521" fill="none" stroke-opacity="0.79216" stroke="#000000" stroke-width="4" stroke-linecap="round"/><path d="M646.65122,402.81764c0,0 3.34006,0 5.48319,0c1.75537,0 3.72617,3.41937 6.28723,3.41937c1.86997,0 3.17986,2.42665 3.17986,2.42665v2.19149h-14.95027z" data-paper-data="{&quot;index&quot;:null}" fill="#ff0000" stroke="#000000" stroke-width="2" stroke-linecap="butt"/><path d="M653.06049,406.88384l-1.06398,1.06398l-3.22682,-3.22681" data-paper-data="{&quot;index&quot;:null}" fill="none" stroke="#ffffff" stroke-width="0.5" stroke-linecap="round"/><path d="M627.29959,402.8305c0,0 3.34006,0 5.48319,0c1.75536,0 3.72616,3.41936 6.28722,3.41936c1.86996,0 3.17986,2.42665 3.17986,2.42665v2.19149h-14.95027z" data-paper-data="{&quot;index&quot;:null}" fill="#ff0000" stroke="#000000" stroke-width="2" stroke-linecap="butt"/><path d="M633.70883,406.89668l-1.06398,1.06397l-3.22682,-3.22681" data-paper-data="{&quot;index&quot;:null}" fill="none" stroke="#ffffff" stroke-width="0.5" stroke-linecap="round"/><path d="M647.19891,411.14485h13.34397" data-paper-data="{&quot;index&quot;:null}" fill="none" stroke="#6f0000" stroke-width="3" stroke-linecap="round"/><path d="M641.58404,411.14485h-13.78669" data-paper-data="{&quot;index&quot;:null}" fill="none" stroke="#6f0000" stroke-width="3" stroke-linecap="round"/><path d="M703.56396,330.69988l-4.63945,14.70019l3.45004,-2.44885l-7.03566,22.83829l1.4327,-16.16742l-2.46203,2.55073l1.6898,-14.15898l7.56461,-7.31396" fill="#faec00" stroke="none" stroke-width="0.66342" stroke-linecap="butt"/><path d="M704.30777,329.94842l-3.62354,13.34198l3.62354,-2.48988l-9.32109,27.70677l0.58871,-16.30166l-1.97098,1.73237l2.09044,-16.36964c0,0 6.58968,-6.64182 7.75878,-7.57855c0.36163,-0.28975 0.85415,-0.0414 0.85415,-0.0414zM702.0779,343.51338l-3.45629,2.45285l4.68271,-14.83686l-6.91258,6.39747l-1.67242,14.01405l2.44038,-2.528l-1.30268,14.69348z" fill="#231f20" stroke="none" stroke-width="0.66342" stroke-linecap="butt"/><path d="M704.30777,329.94842l-3.62354,13.34198l3.62354,-2.48988l-9.32109,27.70677l0.58871,-16.30166l-1.97098,1.73237l2.09044,-16.36964c0,0 6.58968,-6.64182 7.75878,-7.57855c0.36163,-0.28975 0.85415,-0.0414 0.85415,-0.0414zM702.0779,343.51338l-3.45629,2.45285l4.68271,-14.83686l-6.91258,6.39747l-1.67242,14.01405l2.44038,-2.528l-1.30268,14.69348z" fill="#231f20" stroke="none" stroke-width="0.66342" stroke-linecap="butt"/><path d="M685.96932,350.45219c0,-4.05297 3.28558,-7.33855 7.33855,-7.33855c4.05297,0 7.33855,3.28558 7.33855,7.33855c0,4.05297 -3.28558,7.33855 -7.33855,7.33855c-4.05297,0 -7.33855,-3.28558 -7.33855,-7.33855z" fill="#ffc366" stroke="#000000" stroke-width="4.5" stroke-linecap="butt"/><path d="M691.8188,318.73967l-2.78514,8.82475l2.07111,-1.47008l-4.22362,13.71018l0.86007,-9.70555l-1.47799,1.53124l1.01441,-8.49986l4.54116,-4.39068" fill="#faec00" stroke="none" stroke-width="0.66342" stroke-linecap="butt"/><path d="M683.21336,342.37143l-2.99537,9.49087l2.22745,-1.58105l-4.54243,14.74505l0.92499,-10.43814l-1.58956,1.64682l1.09098,-9.14145l4.88393,-4.7221" fill="#faec00" stroke="none" stroke-width="0.66342" stroke-linecap="butt"/><path d="M700.2812,317.9221l-5.12101,16.22598l3.80814,-2.70302l-7.76593,25.20877l1.58141,-17.8455l-2.71757,2.81547l1.86518,-15.6286l8.34978,-8.07311" fill="#faec00" stroke="none" stroke-width="0.66342" stroke-linecap="butt"/><path d="M714.73978,302.60518l-3.3224,10.52703l2.47064,-1.75365l-5.03836,16.35486l1.02598,-11.57774l-1.76309,1.82661l1.21008,-10.13946l5.41715,-5.23764" fill="#faec00" stroke="none" stroke-width="0.66342" stroke-linecap="butt"/><path d="M720.3921,329.1316l-3.3224,10.52704l2.47064,-1.75366l-5.03836,16.35486l1.02598,-11.57774l-1.7631,1.82661l1.21009,-10.13947l5.41715,-5.23764" fill="#faec00" stroke="none" stroke-width="0.66342" stroke-linecap="butt"/><path d="M617.71954,333.18798c0.51648,-0.71703 5.06961,-2.32212 5.56453,-2.41797c3.4522,-0.6686 7.65274,1.4156 6.61127,2.72868c-2.13407,2.69064 -0.81499,32.88653 1.18298,38.14419c1.87656,4.93817 -9.82054,7.69769 -10.51039,6.5702c-1.20121,-1.96326 -4.00785,-15.24346 -4.8285,-23.58604c-0.38513,-3.91512 -1.17392,-17.06029 1.98012,-21.43906z" data-paper-data="{&quot;index&quot;:null}" fill="#1a1a1a" stroke="#000000" stroke-width="2.5" stroke-linecap="butt"/><path d="M627.67959,371.14272c4.05297,0 7.33855,3.28559 7.33855,7.33856c0,4.05297 -3.28558,7.33855 -7.33855,7.33855c-4.05297,0 -7.33855,-3.28558 -7.33855,-7.33855c0,-4.05297 3.28558,-7.33855 7.33855,-7.33856z" data-paper-data="{&quot;index&quot;:null}" fill="#ffc366" stroke="#000000" stroke-width="4.5" stroke-linecap="butt"/></g></g></svg>