<svg version="1.1" xmlns="http://www.w3.org/2000/svg" xmlns:xlink="http://www.w3.org/1999/xlink" width="119.68574" height="76.50752" viewBox="0,0,119.68574,76.50752"><g transform="translate(-578.65133,-339.71665)"><g data-paper-data="{&quot;isPaintingLayer&quot;:true}" fill-rule="evenodd" stroke-miterlimit="10" stroke-dasharray="" stroke-dashoffset="0" style="mix-blend-mode: normal"><path d="M631.72492,383.07918c-3.2114,2.14093 -14.2729,9.99103 -28.36738,14.45131l-0.71364,0.17841c-0.71364,0.17841 -1.07047,1.07047 -0.71364,1.78411c3.03299,4.28187 8.56374,12.84561 -1.24888,15.8786c-9.45579,3.03299 -27.1185,-22.12299 -19.62523,-28.7242c3.38981,-2.49776 6.4228,-1.24888 8.0285,-0.53523c0.89206,0.35682 1.78411,0.35682 2.67617,0.17841c2.14093,-0.71364 6.06598,-2.14093 9.09897,-3.74664c7.67168,-3.92505 9.45579,-5.53075 13.02402,-8.20692c3.56822,-2.67617 11.77514,-9.27738 18.37635,-3.56822c5.70916,4.8171 2.49776,10.16944 -0.53523,12.31037z" fill="#ffab19" stroke="#001026" stroke-width="1.2" stroke-linecap="round" stroke-linejoin="round"/><g><path d="M660.27072,387.53946c3.74664,3.38981 11.95355,10.34785 11.95355,10.34785c0,0 25.5128,-4.46028 25.5128,8.38533c0,7.67168 -12.84561,9.45579 -30.15149,7.85009c-1.07047,-0.17841 -2.14093,-0.53523 -3.03299,-1.24888c-3.92505,-3.38981 -15.16495,-13.38084 -22.3014,-20.33888c-10.52626,-10.34785 -19.26841,-17.12748 -19.26841,-17.12748c-9.63435,-9.40766 -8.17937,-15.3589 -4.60153,-20.64432c0.46688,-0.68971 -3.13728,-3.48792 -2.61803,-4.16115c1.0898,-1.41297 2.22704,-4.90991 4.47361,-5.71661c1.39188,-0.4998 4.18919,1.82899 4.70847,0.90582c4.46028,-7.31486 6.4228,-5.88757 17.12748,-3.74664c6.06598,0.89206 9.63421,1.42729 13.55925,1.24888c5.88757,-0.17841 4.8171,8.38533 3.2114,12.84561c0,0 -2.49776,6.60121 -4.8171,9.99103c-2.85458,4.10346 -4.99551,6.77963 -7.13645,8.38533z" fill="#ffab19" stroke="#001026" stroke-width="1.2" stroke-linecap="round" stroke-linejoin="round"/><path d="M645.28417,374.33703c0,0 -2.67617,-2.14093 -5.53075,-4.8171c-3.56822,-3.2114 -7.13645,-5.88757 -3.56822,-11.41832c3.2114,-4.28187 6.24439,-9.99103 14.2729,-4.8171c7.67168,4.8171 4.28187,9.27738 4.28187,9.27738c-3.92505,8.0285 -9.45579,11.77514 -9.45579,11.77514z" fill="#ffffff" stroke="none" stroke-width="1" stroke-linecap="butt" stroke-linejoin="miter"/></g></g></g></svg>