<svg version="1.1" xmlns="http://www.w3.org/2000/svg" xmlns:xlink="http://www.w3.org/1999/xlink" width="82.61946" height="155.63218" viewBox="0,0,82.61946,155.63218"><g transform="translate(-602.33967,-258.23092)"><g data-paper-data="{&quot;isPaintingLayer&quot;:true}" fill-rule="nonzero" stroke-linejoin="miter" stroke-miterlimit="10" stroke-dasharray="" stroke-dashoffset="0" style="mix-blend-mode: normal"><path d="M641.61795,329.53465c-13.23971,0 -23.97261,-10.73289 -23.97261,-23.9726c0,-13.2397 10.73291,-23.9726 23.97261,-23.9726c13.23971,0 23.97261,10.73289 23.97261,23.9726c0,13.2397 -10.73291,23.9726 -23.97261,23.9726z" data-paper-data="{&quot;index&quot;:null}" fill="#ffc366" stroke="#000000" stroke-width="4.5" stroke-linecap="butt"/><path d="M652.054,297.08881l-5.8819,-4.02186" data-paper-data="{&quot;index&quot;:null}" fill="none" stroke="#000000" stroke-width="1.5" stroke-linecap="round"/><path d="M647.7788,300.1852l-5.26274,-3.5985" data-paper-data="{&quot;index&quot;:null}" fill="none" stroke="#000000" stroke-width="1.5" stroke-linecap="round"/><path d="M634.95611,316.01082h26.72042" data-paper-data="{&quot;index&quot;:null}" fill="none" stroke="#000000" stroke-width="4.5" stroke-linecap="round"/><path d="M612.79615,395.04257c0,0 9.72102,-54.65672 9.72102,-56.10961c0,-4.17023 0,-8.68023 0,-8.68023c0,0 23.71439,-4.75145 37.5961,0c1.57263,0.53828 0,4.71418 0,9.02117c0,1.43188 8.06618,49.65545 8.06618,49.65545c0,0 -24.54295,-17.12156 -27.75561,-17.16232c-2.90797,-0.0369 -27.62769,23.27554 -27.62769,23.27554z" data-paper-data="{&quot;index&quot;:null}" fill="#000000" stroke="#000000" stroke-width="4.5" stroke-linecap="butt"/><path d="M631.25613,345.29227l0.06466,-3.49153c0,0 3.04181,-7.05532 4.78245,-6.28325c1.75781,0.77968 3.94637,1.75719 3.94637,1.75719l1.35782,-3.10359l1.35782,3.03893c0,0 2.14668,-1.44261 3.52707,-1.89857c2.72583,-0.90037 5.65436,6.6186 5.65436,6.6186l0.06466,3.36222c0,0 -4.95331,-3.55619 -8.08224,-3.55619c-1.6982,0 -1.27761,3.62085 -2.52166,3.62085c-1.24312,0 -0.77908,-3.62085 -2.39235,-3.62085c-2.76621,0 -7.75895,3.55619 -7.75895,3.55619z" fill="#ff0000" stroke="#000000" stroke-width="1" stroke-linecap="butt"/><path d="M621.97309,348.33894l1.70176,11.28198" fill="none" stroke="#000000" stroke-width="1" stroke-linecap="round"/><path d="M632.87877,361.11951l-0.87214,-4.36072" fill="none" stroke="#000000" stroke-width="1" stroke-linecap="round"/><path d="M648.83901,367.05009l-15.00087,-15.00087" fill="none" stroke="#2d00ff" stroke-width="2" stroke-linecap="round"/><path d="M644.34746,356.27911l4.31711,-4.31711" fill="none" stroke="#2d00ff" stroke-width="2" stroke-linecap="round"/><path d="M638.37326,362.07887l-5.36368,5.36369" fill="none" stroke="#2d00ff" stroke-width="2" stroke-linecap="round"/><path d="M629.66597,298.13599l7.13084,-9.11723" fill="none" stroke-opacity="0.79216" stroke="#000000" stroke-width="4" stroke-linecap="round"/><path d="M666.63338,391.75393c0,0 2.95026,-1.56587 4.84328,-2.5706c1.55051,-0.82294 4.89436,1.27343 7.15654,0.07277c1.65174,-0.87667 3.94641,0.65268 3.94641,0.65268l1.0274,1.93574l-13.20552,7.00891z" data-paper-data="{&quot;index&quot;:null}" fill="#ff0000" stroke="#000000" stroke-width="2" stroke-linecap="butt"/><path d="M674.20096,392.34083l-0.441,1.43862l-4.36302,-1.33745" data-paper-data="{&quot;index&quot;:null}" fill="none" stroke="#ffffff" stroke-width="0.5" stroke-linecap="round"/><path d="M609.62285,396.04088c0,0 2.28169,2.43924 3.74573,4.00436c1.19914,1.28193 0.0483,5.05707 1.79784,6.9274c1.27743,1.36563 0.40008,3.97996 0.40008,3.97996l-1.60044,1.49707l-10.21297,-10.91814z" data-paper-data="{&quot;index&quot;:null}" fill="#ff0000" stroke="#000000" stroke-width="2" stroke-linecap="butt"/><path d="M611.03167,403.49925l-1.50385,-0.05019l0.15219,-4.56087" data-paper-data="{&quot;index&quot;:null}" fill="none" stroke="#ffffff" stroke-width="0.5" stroke-linecap="round"/><path d="M682.80775,392.59671l-11.78668,6.25585" data-paper-data="{&quot;index&quot;:null}" fill="none" stroke="#6f0000" stroke-width="3" stroke-linecap="round"/><path d="M613.30904,412.15255l-9.4181,-10.06838" data-paper-data="{&quot;index&quot;:null}" fill="none" stroke="#6f0000" stroke-width="3" stroke-linecap="round"/><path d="M671.25005,258.23092l-4.63945,14.70019l3.45004,-2.44885l-7.03566,22.83829l1.4327,-16.16742l-2.46203,2.55073l1.6898,-14.15898l7.56461,-7.31396" fill="#faec00" stroke="none" stroke-width="0.66342" stroke-linecap="butt"/><path d="M668.59831,333.86202c-0.61908,0.63058 -5.36272,1.52787 -5.86645,1.54769c-3.51363,0.13827 -7.35023,-2.55782 -6.12198,-3.6981c2.51681,-2.33655 5.78425,-32.38411 4.60525,-37.88364c-1.10735,-5.16534 10.87269,-6.12225 11.3839,-4.90332c0.89015,2.12248 1.65397,15.67451 1.20219,24.04517c-0.21201,3.9283 -1.42235,17.04138 -5.20293,20.89219z" data-paper-data="{&quot;index&quot;:null}" fill="#1a1a1a" stroke="#000000" stroke-width="2.5" stroke-linecap="butt"/><path d="M664.49897,294.8369c-4.00626,-0.61357 -6.75657,-4.35869 -6.14299,-8.36495c0.61357,-4.00626 4.35868,-6.75657 8.36494,-6.14299c4.00626,0.61357 6.75657,4.35868 6.14299,8.36494c-0.61357,4.00626 -4.35868,6.75657 -8.36494,6.143z" data-paper-data="{&quot;index&quot;:null}" fill="#ffc366" stroke="#000000" stroke-width="4.5" stroke-linecap="butt"/><path d="M618.24185,331.93761c-3.78058,-3.85082 -4.99091,-16.96389 -5.20293,-20.89219c-0.45178,-8.37066 0.31204,-21.92269 1.20219,-24.04517c0.51121,-1.21893 12.49125,-0.26202 11.3839,4.90332c-1.17899,5.49953 2.08845,35.54708 4.60526,37.88364c1.22825,1.14028 -2.60835,3.83637 -6.12198,3.6981c-0.50373,-0.01982 -5.24738,-0.91712 -5.86645,-1.54769z" data-paper-data="{&quot;index&quot;:null}" fill="#1a1a1a" stroke="#000000" stroke-width="2.5" stroke-linecap="butt"/><path d="M613.97624,286.76949c-0.61357,-4.00626 2.13674,-7.75137 6.143,-8.36494c4.00626,-0.61357 7.75136,2.13674 8.36494,6.143c0.61357,4.00626 -2.13674,7.75137 -6.14299,8.36495c-4.00626,0.61356 -7.75137,-2.13675 -8.36494,-6.143z" data-paper-data="{&quot;index&quot;:null}" fill="#ffc366" stroke="#000000" stroke-width="4.5" stroke-linecap="butt"/></g></g></svg>