<svg version="1.1" xmlns="http://www.w3.org/2000/svg" xmlns:xlink="http://www.w3.org/1999/xlink" width="255.51632" height="255.51632" viewBox="0,0,255.51632,255.51632"><defs><radialGradient cx="649.20776" cy="292.62375" r="127.75816" gradientUnits="userSpaceOnUse" id="color-1"><stop offset="0" stop-color="#faed00" stop-opacity="0.27451"/><stop offset="1" stop-color="#faed00" stop-opacity="0"/></radialGradient></defs><g transform="translate(-521.44959,-164.86559)"><g data-paper-data="{&quot;isPaintingLayer&quot;:true}" fill-rule="nonzero" stroke-linejoin="miter" stroke-miterlimit="10" stroke-dasharray="" stroke-dashoffset="0" style="mix-blend-mode: normal"><path d="M521.44959,292.62375c0,-70.55889 57.19928,-127.75816 127.75816,-127.75816c70.55889,0 127.75816,57.19928 127.75816,127.75816c0,70.55889 -57.19928,127.75816 -127.75816,127.75816c-70.55889,0 -127.75816,-57.19928 -127.75816,-127.75816z" fill="url(#color-1)" stroke="none" stroke-width="0" stroke-linecap="butt"/><path d="M660.23465,340.64117c-2.29431,-1.10777 -2.51633,-3.572 -2.5026,-5.04787c0.01644,-1.76599 -0.43362,-4.56428 2.75412,-5.69857c3.23548,-1.15128 11.57506,-0.17053 16.52361,-0.12449c3.18426,0.02963 5.57112,-9.20038 6.66224,-14.71802c1.02481,-5.18235 12.40729,-1.32537 12.39499,-0.00364c-0.02142,2.30149 -4.67719,15.05157 -8.40126,22.56179c-2.03386,4.10165 -8.73551,4.62385 -12.20565,4.59157c-5.74951,-0.0535 -11.98798,0.00239 -15.22545,-1.56077z" data-paper-data="{&quot;index&quot;:null}" fill="#1a1a1a" stroke="#000000" stroke-width="2.5" stroke-linecap="butt"/><path d="M641.61795,333.0651c-13.23971,0 -23.97261,-10.73289 -23.97261,-23.9726c0,-13.2397 10.73291,-23.9726 23.97261,-23.9726c13.23971,0 23.97261,10.73289 23.97261,23.9726c0,13.2397 -10.73291,23.9726 -23.97261,23.9726z" data-paper-data="{&quot;index&quot;:null}" fill="#ffc366" stroke="#000000" stroke-width="4.5" stroke-linecap="butt"/><path d="M649.76956,304.44658v-7.12545" data-paper-data="{&quot;index&quot;:null}" fill="none" stroke="#000000" stroke-width="0.5" stroke-linecap="round"/><path d="M644.80049,296.28982v6.37539" data-paper-data="{&quot;index&quot;:null}" fill="none" stroke="#000000" stroke-width="0.5" stroke-linecap="round"/><path d="M661.67653,319.54127h-26.72042" data-paper-data="{&quot;index&quot;:null}" fill="none" stroke="#000000" stroke-width="4.5" stroke-linecap="round"/><path d="M630.97272,400.30412c0,0 -8.74407,-56.67634 -8.74407,-58.12923c0,-4.17023 0,-8.68023 0,-8.68023c0,0 23.71439,-4.75145 37.5961,0c1.57263,0.53828 0,4.71418 0,9.02117c0,1.43188 -10.39891,58.02244 -10.39891,58.02244c0,0 -6.07786,-25.48855 -9.29052,-25.52931c-2.90797,-0.0369 -9.1626,25.29516 -9.1626,25.29516z" data-paper-data="{&quot;index&quot;:null}" fill="#000000" stroke="#000000" stroke-width="4.5" stroke-linecap="butt"/><path d="M631.25613,348.82272l0.06466,-3.49153c0,0 3.04181,-7.05532 4.78245,-6.28325c1.75781,0.77968 3.94637,1.75719 3.94637,1.75719l1.35782,-3.10359l1.35782,3.03893c0,0 2.14668,-1.44261 3.52707,-1.89857c2.72583,-0.90037 5.65436,6.6186 5.65436,6.6186l0.06466,3.36222c0,0 -4.95331,-3.55619 -8.08224,-3.55619c-1.6982,0 -1.27761,3.62085 -2.52166,3.62085c-1.24312,0 -0.77908,-3.62085 -2.39235,-3.62085c-2.76621,0 -7.75895,3.55619 -7.75895,3.55619z" fill="#ff0000" stroke="#000000" stroke-width="1" stroke-linecap="butt"/><path d="M621.97309,351.86939l1.70176,11.28198" fill="none" stroke="#000000" stroke-width="1" stroke-linecap="round"/><path d="M632.00663,360.28924l0.87214,4.36072" fill="none" stroke="#000000" stroke-width="1" stroke-linecap="round"/><path d="M633.83814,355.57967l15.00087,15.00087" fill="none" stroke="#2d00ff" stroke-width="2" stroke-linecap="round"/><path d="M644.34746,359.80956l4.31711,-4.31711" fill="none" stroke="#2d00ff" stroke-width="2" stroke-linecap="round"/><path d="M633.00958,370.97301l5.36368,-5.36369" fill="none" stroke="#2d00ff" stroke-width="2" stroke-linecap="round"/><path d="M638.77226,291.24756l11.42175,1.87521" fill="none" stroke-opacity="0.79216" stroke="#000000" stroke-width="4" stroke-linecap="round"/><path d="M646.65122,403.70025c0,0 3.34006,0 5.48319,0c1.75537,0 3.72617,3.41937 6.28723,3.41937c1.86997,0 3.17986,2.42665 3.17986,2.42665v2.19149h-14.95027z" data-paper-data="{&quot;index&quot;:null}" fill="#ff0000" stroke="#000000" stroke-width="2" stroke-linecap="butt"/><path d="M653.06049,407.76645l-1.06398,1.06398l-3.22682,-3.22681" data-paper-data="{&quot;index&quot;:null}" fill="none" stroke="#ffffff" stroke-width="0.5" stroke-linecap="round"/><path d="M627.29959,403.71311c0,0 3.34006,0 5.48319,0c1.75536,0 3.72616,3.41936 6.28722,3.41936c1.86996,0 3.17986,2.42665 3.17986,2.42665v2.19149h-14.95027z" data-paper-data="{&quot;index&quot;:null}" fill="#ff0000" stroke="#000000" stroke-width="2" stroke-linecap="butt"/><path d="M633.70883,407.77929l-1.06398,1.06397l-3.22682,-3.22681" data-paper-data="{&quot;index&quot;:null}" fill="none" stroke="#ffffff" stroke-width="0.5" stroke-linecap="round"/><path d="M647.19891,412.02746h13.34397" data-paper-data="{&quot;index&quot;:null}" fill="none" stroke="#6f0000" stroke-width="3" stroke-linecap="round"/><path d="M627.79735,412.02746h13.78669" data-paper-data="{&quot;index&quot;:null}" fill="none" stroke="#6f0000" stroke-width="3" stroke-linecap="round"/><path d="M686.90153,319.02021c-3.43736,-2.14734 -4.48313,-6.67465 -2.33579,-10.11201c2.14734,-3.43736 6.67464,-4.48313 10.11201,-2.33578c3.43737,2.14734 4.48313,6.67464 2.33579,10.11201c-2.14734,3.43737 -6.67464,4.48314 -10.11201,2.33579z" fill="#ffc366" stroke="#000000" stroke-width="4.5" stroke-linecap="butt"/><path d="M646.3575,197.49617l-5.08676,21.40158l4.65783,-3.84142l-7.65771,33.23183l0.37119,-23.15906l-3.24107,3.88448l0.94434,-20.32695l10.0122,-11.19047" fill="#faec00" stroke="none" stroke-width="0.66342" stroke-linecap="butt"/><path d="M627.61841,342.75601c-3.23747,1.56316 -9.47593,1.50727 -15.22545,1.56077c-3.47013,0.03229 -10.17178,-0.48992 -12.20565,-4.59157c-3.72406,-7.51022 -8.37984,-20.26031 -8.40126,-22.5618c-0.0123,-1.32173 11.37018,-5.17871 12.39499,0.00364c1.09111,5.51764 3.47798,14.74764 6.66224,14.71802c4.94855,-0.04604 13.28813,-1.02679 16.52361,0.12449c3.18773,1.13429 2.73768,3.93258 2.75411,5.69857c0.01373,1.47586 -0.20828,3.94009 -2.50259,5.04787z" data-paper-data="{&quot;index&quot;:null}" fill="#1a1a1a" stroke="#000000" stroke-width="2.5" stroke-linecap="butt"/><path d="M590.83953,318.79925c-2.14734,-3.43736 -1.10158,-7.96466 2.33578,-10.112c3.43737,-2.14734 7.96467,-1.10158 10.11201,2.33578c2.14734,3.43737 1.10158,7.96467 -2.33579,10.11201c-3.43736,2.14734 -7.96466,1.10157 -10.11201,-2.33579z" data-paper-data="{&quot;index&quot;:null}" fill="#ffc366" stroke="#000000" stroke-width="4.5" stroke-linecap="butt"/><path d="M602.51058,185.72653l-3.71668,15.6372l3.40328,-2.80676l-5.59515,24.28106l0.27121,-16.92132l-2.36811,2.83822l0.68998,-14.85202l7.31548,-8.1764" fill="#faec00" stroke="none" stroke-width="0.66342" stroke-linecap="butt"/><path d="M623.8389,190.72654l-8.42901,35.46345l7.71824,-6.36542l-12.6892,55.06676l0.61509,-38.37569l-5.37062,6.43678l1.56481,-33.68274l16.5907,-18.54316" fill="#faec00" stroke="none" stroke-width="0.66342" stroke-linecap="butt"/><path d="M664.03815,180.28081l-3.25804,13.70758l2.98331,-2.46041l-4.90472,21.2848l0.23775,-14.83325l-2.07588,2.48799l0.60484,-13.01929l6.41276,-7.16744" fill="#faec00" stroke="none" stroke-width="0.66342" stroke-linecap="butt"/><path d="M596.22262,229.41143l-3.25804,13.70758l2.98331,-2.46041l-4.90472,21.2848l0.23775,-14.83325l-2.07589,2.48799l0.60484,-13.01929l6.41275,-7.16744" fill="#faec00" stroke="none" stroke-width="0.66342" stroke-linecap="butt"/><path d="M563.71159,184.54382l-3.25804,13.70759l2.98331,-2.46041l-4.90472,21.2848l0.23775,-14.83325l-2.07589,2.48799l0.60484,-13.01929l6.41275,-7.16744" fill="#faec00" stroke="none" stroke-width="0.66342" stroke-linecap="butt"/><path d="M533.84839,226.17224l-3.25804,13.70758l2.98331,-2.46041l-4.90472,21.2848l0.23775,-14.83325l-2.07588,2.48799l0.60484,-13.01929l6.41275,-7.16744" fill="#faec00" stroke="none" stroke-width="0.66342" stroke-linecap="butt"/><path d="M550.76366,205.13517l-3.25804,13.70758l2.98331,-2.46041l-4.90472,21.2848l0.23775,-14.83325l-2.07588,2.48799l0.60484,-13.01929l6.41276,-7.16744" fill="#faec00" stroke="none" stroke-width="0.66342" stroke-linecap="butt"/><path d="M564.14848,224.69828l-3.25804,13.70758l2.98331,-2.46041l-4.90472,21.2848l0.23775,-14.83325l-2.07588,2.48799l0.60484,-13.01929l6.41276,-7.16744" fill="#faec00" stroke="none" stroke-width="0.66342" stroke-linecap="butt"/><path d="M582.82898,202.33728l-3.25804,13.70759l2.98331,-2.46041l-4.90472,21.2848l0.23775,-14.83324l-2.07589,2.48799l0.60484,-13.01929l6.41275,-7.16743" fill="#faec00" stroke="none" stroke-width="0.66342" stroke-linecap="butt"/><path d="M676.79566,230.4441l-3.71668,15.6372l3.40328,-2.80676l-5.59515,24.28106l0.27121,-16.92132l-2.36811,2.83822l0.68998,-14.85202l7.31548,-8.1764" fill="#faec00" stroke="none" stroke-width="0.66342" stroke-linecap="butt"/><path d="M702.97836,191.31347l-3.71667,15.6372l3.40327,-2.80676l-5.59515,24.28106l0.27121,-16.92132l-2.36811,2.83822l0.68999,-14.85202l7.31548,-8.17639" fill="#faec00" stroke="none" stroke-width="0.66342" stroke-linecap="butt"/><path d="M728.71976,220.14401l-3.71668,15.63721l3.40328,-2.80676l-5.59515,24.28106l0.27121,-16.92133l-2.36811,2.83823l0.68998,-14.85202l7.31548,-8.1764" fill="#faec00" stroke="none" stroke-width="0.66342" stroke-linecap="butt"/><path d="M676.77361,198.66563l-2.47917,10.43067l2.27013,-1.87222l-3.73221,16.19649l0.18091,-11.28723l-1.57962,1.89321l0.46025,-9.90693l4.87973,-5.454" fill="#faec00" stroke="none" stroke-width="0.66342" stroke-linecap="butt"/><path d="M701.63239,234.11576l-2.47918,10.43067l2.27013,-1.87222l-3.7322,16.19649l0.18091,-11.28723l-1.57962,1.89321l0.46025,-9.90693l4.87973,-5.454" fill="#faec00" stroke="none" stroke-width="0.66342" stroke-linecap="butt"/><path d="M764.44351,205.13518l-2.47917,11.36041l2.27013,-2.03911l-3.73221,17.64016l0.18091,-12.29333l-1.57963,2.06197l0.46025,-10.78998l4.87973,-5.94015" fill="#faec00" stroke="none" stroke-width="0.66342" stroke-linecap="butt"/><path d="M731.49117,196.01338l-2.47918,11.36041l2.27013,-2.03911l-3.73221,17.64016l0.18091,-12.29333l-1.57962,2.06197l0.46025,-10.78998l4.87973,-5.94015" fill="#faec00" stroke="none" stroke-width="0.66342" stroke-linecap="butt"/><path d="M747.52382,225.28523l-2.47918,11.3604l2.27013,-2.0391l-3.7322,17.64016l0.18091,-12.29333l-1.57962,2.06197l0.46025,-10.78998l4.87973,-5.94015" fill="#faec00" stroke="none" stroke-width="0.66342" stroke-linecap="butt"/><path d="M744.13901,203.36554l-2.47917,11.36041l2.27012,-2.03911l-3.7322,17.64016l0.18091,-12.29332l-1.57962,2.06197l0.46025,-10.78998l4.87973,-5.94015" fill="#faec00" stroke="none" stroke-width="0.66342" stroke-linecap="butt"/></g></g></svg>