<svg version="1.1" xmlns="http://www.w3.org/2000/svg" xmlns:xlink="http://www.w3.org/1999/xlink" width="130.65364" height="185.07568" viewBox="0,0,130.65364,185.07568"><defs><linearGradient x1="735.93189" y1="264.94449" x2="723.71977" y2="272.5606" gradientUnits="userSpaceOnUse" id="color-1"><stop offset="0" stop-color="#ffa800" stop-opacity="0"/><stop offset="1" stop-color="#ffa800"/></linearGradient><linearGradient x1="736.05953" y1="264.90811" x2="723.84741" y2="272.52423" gradientUnits="userSpaceOnUse" id="color-2"><stop offset="0" stop-color="#0018ff" stop-opacity="0"/><stop offset="1" stop-color="#0018ff"/></linearGradient></defs><g transform="translate(-613.022,-243.15234)"><g data-paper-data="{&quot;isPaintingLayer&quot;:true}" fill-rule="nonzero" stroke-linejoin="miter" stroke-miterlimit="10" stroke-dasharray="" stroke-dashoffset="0" style="mix-blend-mode: normal"><path d="M728.31578,252.73238l7.69988,12.34643l-12.29589,7.4818z" data-paper-data="{&quot;index&quot;:null}" fill="url(#color-1)" stroke="none" stroke-width="0" stroke-linecap="butt"/><path d="M723.84741,272.52423l12.12835,-7.75043l7.69988,12.34643z" data-paper-data="{&quot;index&quot;:null}" fill="url(#color-2)" stroke="none" stroke-width="0" stroke-linecap="butt"/><path d="M719.93663,265.17608c1.17197,-0.06431 4.81785,2.02404 4.07318,3.43695c0.00619,0.0759 0.00891,0.15179 0.00821,0.22745c1.71999,1.67789 6.12371,6.05925 4.46022,8.949c-1.23761,2.14992 -3.06267,0.45197 -4.70661,0.1209c-1.43844,-0.28968 -2.67204,1.16386 -3.9833,1.2461c-1.71521,0.10757 -4.29003,-2.45677 -5.35051,-3.74982c-2.07563,-2.53083 1.8126,-10.0283 5.49881,-10.23059z" data-paper-data="{&quot;index&quot;:null}" fill="#000000" stroke="none" stroke-width="0.5" stroke-linecap="butt"/><path d="M713.85028,273.98179l1.41124,-6.38822l3.88444,-2.42254l3.55952,0.86397l7.27892,11.67143" data-paper-data="{&quot;index&quot;:null}" fill="none" stroke="#000000" stroke-width="1.5" stroke-linecap="round"/><path d="M686.48962,301.41317l-4.79978,-7.69625l31.96658,-19.93603l4.79978,7.69625z" data-paper-data="{&quot;index&quot;:null}" fill="#383838" stroke="#000000" stroke-width="1.5" stroke-linecap="butt"/><path d="M657.84261,301.41709c-3.04264,-4.87874 -6.44015,-10.11119 -6.86022,-13.68165c-0.29769,-2.5303 1.66177,-4.04099 2.91412,-4.82202c1.49853,-0.93456 3.61732,-2.81702 6.28613,-0.73717c2.70879,2.11099 5.97581,8.22239 8.59457,12.42147c1.68511,2.702 13.65838,-6.21334 18.89877,-8.25617c4.92196,-1.9187 3.2899,11.51553 2.16834,12.21499c-1.95293,1.21795 -13.23819,9.79883 -21.57345,10.69075c-4.55223,0.48711 -8.59186,-4.88562 -10.42825,-7.83019z" data-paper-data="{&quot;index&quot;:null}" fill="#1a1a1a" stroke="#000000" stroke-width="2.5" stroke-linecap="butt"/><path d="M666.51945,298.75525c0.96377,-6.34891 4.69899,-8.99191 12.74622,-14.01059c11.62966,-7.25286 25.4179,-9.53065 25.4179,-9.53065l-8.58192,24.41877c0,0 -22.25211,13.31539 -26.77639,6.0609c-1.39368,-2.2347 -3.23485,-4.11205 -2.80581,-6.93843z" data-paper-data="{&quot;index&quot;:null}" fill="#ffffff" stroke="none" stroke-width="0" stroke-linecap="butt"/><path d="M713.26102,288.16042c-2.07735,-3.33094 -1.30046,-11.78014 3.44347,-14.7387c1.54242,-0.96194 3.69042,-1.30133 5.33335,-0.41717c1.02181,0.54989 1.48468,2.17797 2.59256,2.58119c2.58948,0.94246 5.61893,0.10155 6.60078,1.67591c2.07735,3.33094 -2.26,5.2639 -7.00394,8.22246c-4.74394,2.95857 -8.88887,6.00724 -10.96622,2.6763z" data-paper-data="{&quot;index&quot;:null}" fill="#ffffff" stroke="none" stroke-width="0" stroke-linecap="butt"/><path d="M718.08811,287.34885c-0.59189,0.36913 -1.3772,0.17852 -1.75405,-0.42574c-0.37685,-0.60426 -0.20253,-1.39335 0.38936,-1.76248c0.59189,-0.36913 1.3772,-0.17852 1.75405,0.42574c0.37685,0.60426 0.20253,1.39335 -0.38936,1.76248z" data-paper-data="{&quot;index&quot;:null}" fill="#000000" stroke="none" stroke-width="0" stroke-linecap="butt"/><path d="M717.36877,285.28843l0.34796,0.55794" data-paper-data="{&quot;index&quot;:null}" fill="none" stroke="#ffffff" stroke-width="0.5" stroke-linecap="round"/><path d="M716.54901,285.79967l0.31534,0.50563" data-paper-data="{&quot;index&quot;:null}" fill="#ffffff" stroke="#ffffff" stroke-width="0.5" stroke-linecap="round"/><path d="M717.69236,286.83425c-0.11475,0.07157 -0.26701,0.03461 -0.34008,-0.08254c-0.07306,-0.11715 -0.03926,-0.27015 0.07549,-0.34171c0.11475,-0.07157 0.26701,-0.03461 0.34008,0.08254c0.07306,0.11715 0.03926,0.27015 -0.07549,0.34171z" data-paper-data="{&quot;index&quot;:null}" fill="#ffffff" stroke="none" stroke-width="0.5" stroke-linecap="butt"/><path d="M641.61792,293.34754c-13.23971,0 -23.97261,-10.73289 -23.97261,-23.9726c0,-13.2397 10.73291,-23.9726 23.97261,-23.9726c13.23971,0 23.97261,10.73289 23.97261,23.9726c0,13.2397 -10.73291,23.9726 -23.97261,23.9726z" data-paper-data="{&quot;index&quot;:null}" fill="#ffc366" stroke="#000000" stroke-width="4.5" stroke-linecap="butt"/><path d="M646.82517,256.74601l5.11781,4.95783" data-paper-data="{&quot;index&quot;:null}" fill="none" stroke="#000000" stroke-width="4.5" stroke-linecap="round"/><path d="M642.62701,259.59743l4.57908,4.43594" data-paper-data="{&quot;index&quot;:null}" fill="none" stroke="#000000" stroke-width="4.5" stroke-linecap="round"/><path d="M634.9561,279.82371h26.72042" data-paper-data="{&quot;index&quot;:null}" fill="none" stroke="#000000" stroke-width="4.5" stroke-linecap="round"/><path d="M630.97269,360.58656c0,0 -5.7448,-34.3533 -5.7448,-50.81331c0,-2.57012 -2.99927,-5.86303 -2.99927,-7.31592c0,-4.17023 0,-8.68023 0,-8.68023h37.5961c0,0 0,4.71418 0,9.02117c0,1.43188 -3.18943,4.06043 -3.18943,6.54355c0,16.36092 -7.20948,50.87883 -7.20948,50.87883z" data-paper-data="{&quot;index&quot;:null}" fill="#000000" stroke="#000000" stroke-width="4.5" stroke-linecap="butt"/><path d="M639.87866,373.68118c13.58988,0 24.60666,1.67913 24.60666,3.75045c0,2.07132 -11.01678,3.75046 -24.60666,3.75046c-13.58988,0 -24.60666,-1.67914 -24.60666,-3.75046c0,-2.07132 11.01678,-3.75045 24.60666,-3.75045z" data-paper-data="{&quot;index&quot;:null}" fill="none" stroke-opacity="0.64706" stroke="#00cad4" stroke-width="4.5" stroke-linecap="butt"/><path d="M638.87936,397.76079c8.53787,0 15.4592,1.39245 15.4592,3.11013c0,1.71768 -6.92132,3.11014 -15.4592,3.11014c-8.53788,0 -15.4592,-1.39246 -15.4592,-3.11014c0,-1.71768 6.92132,-3.11013 15.4592,-3.11013z" data-paper-data="{&quot;index&quot;:null}" fill="none" stroke-opacity="0.64706" stroke="#00cad4" stroke-width="4.5" stroke-linecap="butt"/><path d="M638.95674,423.41674c1.7682,0 3.20161,0.57336 3.20161,1.28064c0,0.70728 -1.43341,1.28064 -3.20161,1.28064c-1.7682,0 -3.20161,-0.57336 -3.20161,-1.28064c0,-0.70728 1.43341,-1.28064 3.20161,-1.28064z" data-paper-data="{&quot;index&quot;:null}" fill="none" stroke-opacity="0.64706" stroke="#00cad4" stroke-width="4.5" stroke-linecap="butt"/><path d="M640.48658,324.91369l-6.65145,-31.90527h13.3029z" data-paper-data="{&quot;index&quot;:null}" fill="#ffffff" stroke="none" stroke-width="0" stroke-linecap="butt"/><path d="M640.56734,327.23216l-3.72864,-16.74904l3.72864,-16.74902l3.72863,16.74902z" data-paper-data="{&quot;index&quot;:null}" fill="#ff0000" stroke="#000000" stroke-width="1" stroke-linecap="butt"/><path d="M640.67943,300.74218l-3.72864,-3.72864l3.72864,-3.72863l3.72864,3.72863z" data-paper-data="{&quot;index&quot;:null}" fill="#ff0000" stroke="#000000" stroke-width="1" stroke-linecap="butt"/><path d="M647.55533,305.54304v-6.37539h8.9068v6.37539z" data-paper-data="{&quot;index&quot;:null}" fill="#1a1a1a" stroke="#101010" stroke-width="0.5" stroke-linecap="butt"/><path d="M650.0491,299.3063l3.86037,3.86037" data-paper-data="{&quot;index&quot;:null}" fill="none" stroke="#ff0000" stroke-width="0.5" stroke-linecap="round"/><path d="M655.42603,305.64833l-5.18392,-5.18392" data-paper-data="{&quot;index&quot;:null}" fill="none" stroke="#0046ff" stroke-width="0.5" stroke-linecap="round"/><path d="M616.37106,309.02471c-0.2977,-2.53029 1.66177,-4.04099 2.91412,-4.82202c1.49853,-0.93456 3.61733,-2.81702 6.28613,-0.73717c2.70878,2.111 6.36023,9.67256 8.979,13.87165c1.68511,2.702 35.88109,-14.3528 41.12149,-16.39564c4.92195,-1.9187 8.20301,8.97144 7.08146,9.6709c-1.95293,1.21795 -40.75846,19.03222 -49.09372,19.92414c-4.55223,0.48711 -8.59186,-4.88562 -10.42825,-7.83019c-3.04264,-4.87874 -6.44015,-10.11119 -6.86022,-13.68165z" data-paper-data="{&quot;index&quot;:null}" fill="#1a1a1a" stroke="#000000" stroke-width="2.5" stroke-linecap="butt"/><path d="M684.1041,297.52898c2.79125,-1.74077 6.39985,-0.99395 8.06003,1.66808c1.66017,2.66202 0.74326,6.2312 -2.04799,7.97197c-2.79125,1.74077 -6.39985,0.99395 -8.06003,-1.66808c-1.66017,-2.66202 -0.74326,-6.2312 2.04799,-7.97197z" data-paper-data="{&quot;index&quot;:null}" fill="#ffc366" stroke="#000000" stroke-width="4.5" stroke-linecap="butt"/></g></g></svg>