<svg version="1.1" xmlns="http://www.w3.org/2000/svg" xmlns:xlink="http://www.w3.org/1999/xlink" width="1226.13613" height="686.93712" viewBox="0,0,1226.13613,686.93712"><defs><linearGradient x1="595.1699" y1="356.1562" x2="686.1699" y2="356.1562" gradientUnits="userSpaceOnUse" id="color-1"><stop offset="0.012" stop-color="#a7a9ac"/><stop offset="1" stop-color="#414042"/></linearGradient><linearGradient x1="598.583" y1="356.1553" x2="682.7559" y2="356.1553" gradientUnits="userSpaceOnUse" id="color-2"><stop offset="0" stop-color="#d1d2d3"/><stop offset="1" stop-color="#a4a5a8"/></linearGradient></defs><g transform="translate(-23.09693,-16.3747)"><g data-paper-data="{&quot;isPaintingLayer&quot;:true}" fill-rule="nonzero" stroke="none" stroke-width="1" stroke-linecap="butt" stroke-linejoin="miter" stroke-miterlimit="10" stroke-dasharray="" stroke-dashoffset="0" style="mix-blend-mode: normal"><path d="M1249.23306,694.70682c0,4.752 -3.854,8.605 -8.605,8.605h-1208.92713c-4.752,0 -8.604,-3.854 -8.604,-8.605v-669.72812c0,-4.752 3.852,-8.604 8.604,-8.604h1208.92613c4.754,0 8.605,3.852 8.605,8.604v669.72812z" fill="url(#color-1)"/><path d="M1245.81806,24.9787v669.72712c0,2.862 -2.327,5.19 -5.191,5.19h-1208.92613c-2.861,0 -5.19,-2.328 -5.19,-5.19v-669.72812c0,-2.862 2.329,-5.19 5.19,-5.19h1208.92613c2.864,0 5.191,2.329 5.191,5.191z" fill="url(#color-2)"/><text transform="translate(41.65165,62.7027) scale(0.5,0.5)" font-size="40" xml:space="preserve" fill="#9966ff" fill-rule="nonzero" stroke="none" stroke-width="1" stroke-linecap="butt" stroke-linejoin="miter" stroke-miterlimit="10" stroke-dasharray="" stroke-dashoffset="0" font-family="Sans Serif" font-weight="normal" text-anchor="start" style="mix-blend-mode: normal"><tspan x="0" dy="0">Hallo, small tutorial</tspan><tspan x="0" dy="46.15px"> </tspan><tspan x="0" dy="46.15px"> </tspan><tspan x="0" dy="46.15px"> </tspan><tspan x="0" dy="46.15px">Q &amp; E opens the console</tspan><tspan x="0" dy="46.15px">I - teleports a dummy</tspan><tspan x="0" dy="46.15px">o - Teleports you</tspan><tspan x="0" dy="46.15px">a/d - move</tspan><tspan x="0" dy="46.15px">Space - jump</tspan><tspan x="0" dy="46.15px">R - Attack 2</tspan><tspan x="0" dy="46.15px">E - attack 1</tspan><tspan x="0" dy="46.15px"> </tspan><tspan x="0" dy="46.15px">Q - dummy attack 1</tspan><tspan x="0" dy="46.15px">T - Dummy attack 2</tspan></text><text transform="translate(104.71471,477.11712) scale(0.5,0.5)" font-size="40" xml:space="preserve" fill="#9966ff" fill-rule="nonzero" stroke="none" stroke-width="1" stroke-linecap="butt" stroke-linejoin="miter" stroke-miterlimit="10" stroke-dasharray="" stroke-dashoffset="0" font-family="Sans Serif" font-weight="normal" text-anchor="start" style="mix-blend-mode: normal"><tspan x="0" dy="0">H - open and close this menu</tspan></text></g></g></svg>