<svg version="1.1" xmlns="http://www.w3.org/2000/svg" xmlns:xlink="http://www.w3.org/1999/xlink" width="107.98371" height="130.65756" viewBox="0,0,107.98371,130.65756"><g transform="translate(-615.39534,-282.8699)"><g data-paper-data="{&quot;isPaintingLayer&quot;:true}" fill-rule="nonzero" stroke-linejoin="miter" stroke-miterlimit="10" stroke-dasharray="" stroke-dashoffset="0" style="mix-blend-mode: normal"><path d="M645.71376,339.0195c-0.27606,-2.53275 1.69625,-4.02664 2.95522,-4.79694c1.50646,-0.92172 3.64127,-2.786 6.2922,-0.68342c2.69064,2.13407 6.27733,9.72657 8.86012,13.94788c1.66196,2.7163 10.75463,-0.14962 16.01229,-2.14759c4.93817,-1.87656 7.69769,9.82054 6.5702,10.51039c-1.96326,1.20121 -15.24346,4.00785 -23.58604,4.8285c-4.55623,0.44819 -8.54979,-4.95887 -10.36095,-7.91903c-3.00083,-4.90457 -6.3535,-10.16586 -6.74304,-13.73978z" data-paper-data="{&quot;index&quot;:null}" fill="#1a1a1a" stroke="#000000" stroke-width="2.5" stroke-linecap="butt"/><path d="M641.61795,333.0651c-13.23971,0 -23.97261,-10.73289 -23.97261,-23.9726c0,-13.2397 10.73291,-23.9726 23.97261,-23.9726c13.23971,0 23.97261,10.73289 23.97261,23.9726c0,13.2397 -10.73291,23.9726 -23.97261,23.9726z" data-paper-data="{&quot;index&quot;:null}" fill="#ffc366" stroke="#000000" stroke-width="4.5" stroke-linecap="butt"/><path d="M649.76956,304.44658v-7.12545" data-paper-data="{&quot;index&quot;:null}" fill="none" stroke="#000000" stroke-width="0.5" stroke-linecap="round"/><path d="M644.80049,296.28982v6.37539" data-paper-data="{&quot;index&quot;:null}" fill="none" stroke="#000000" stroke-width="0.5" stroke-linecap="round"/><path d="M634.95611,319.54127h26.72042" data-paper-data="{&quot;index&quot;:null}" fill="none" stroke="#000000" stroke-width="4.5" stroke-linecap="round"/><path d="M630.97272,400.30412c0,0 -8.74407,-56.67634 -8.74407,-58.12923c0,-4.17023 0,-8.68023 0,-8.68023c0,0 23.71439,-4.75145 37.5961,0c1.57263,0.53828 0,4.71418 0,9.02117c0,1.43188 -10.39891,58.02244 -10.39891,58.02244c0,0 -6.07786,-25.48855 -9.29052,-25.52931c-2.90797,-0.0369 -9.1626,25.29516 -9.1626,25.29516z" data-paper-data="{&quot;index&quot;:null}" fill="#000000" stroke="#000000" stroke-width="4.5" stroke-linecap="butt"/><path d="M631.25613,348.82272l0.06466,-3.49153c0,0 3.04181,-7.05532 4.78245,-6.28325c1.75781,0.77968 3.94637,1.75719 3.94637,1.75719l1.35782,-3.10359l1.35782,3.03893c0,0 2.14668,-1.44261 3.52707,-1.89857c2.72583,-0.90037 5.65436,6.6186 5.65436,6.6186l0.06466,3.36222c0,0 -4.95331,-3.55619 -8.08224,-3.55619c-1.6982,0 -1.27761,3.62085 -2.52166,3.62085c-1.24312,0 -0.77908,-3.62085 -2.39235,-3.62085c-2.76621,0 -7.75895,3.55619 -7.75895,3.55619z" fill="#ff0000" stroke="#000000" stroke-width="1" stroke-linecap="butt"/><path d="M621.97309,351.86939l1.70176,11.28198" fill="none" stroke="#000000" stroke-width="1" stroke-linecap="round"/><path d="M632.87877,364.64996l-0.87214,-4.36072" fill="none" stroke="#000000" stroke-width="1" stroke-linecap="round"/><path d="M633.83814,355.57967l15.00087,15.00087" fill="none" stroke="#2d00ff" stroke-width="2" stroke-linecap="round"/><path d="M644.34746,359.80956l4.31711,-4.31711" fill="none" stroke="#2d00ff" stroke-width="2" stroke-linecap="round"/><path d="M633.00958,370.97301l5.36368,-5.36369" fill="none" stroke="#2d00ff" stroke-width="2" stroke-linecap="round"/><path d="M638.77226,291.24756l11.42175,1.87521" fill="none" stroke-opacity="0.79216" stroke="#000000" stroke-width="4" stroke-linecap="round"/><path d="M646.65122,403.70025c0,0 3.34006,0 5.48319,0c1.75537,0 3.72617,3.41937 6.28723,3.41937c1.86997,0 3.17986,2.42665 3.17986,2.42665v2.19149h-14.95027z" data-paper-data="{&quot;index&quot;:null}" fill="#ff0000" stroke="#000000" stroke-width="2" stroke-linecap="butt"/><path d="M653.06049,407.76645l-1.06398,1.06398l-3.22682,-3.22681" data-paper-data="{&quot;index&quot;:null}" fill="none" stroke="#ffffff" stroke-width="0.5" stroke-linecap="round"/><path d="M627.29959,403.71311c0,0 3.34006,0 5.48319,0c1.75536,0 3.72616,3.41936 6.28722,3.41936c1.86996,0 3.17986,2.42665 3.17986,2.42665v2.19149h-14.95027z" data-paper-data="{&quot;index&quot;:null}" fill="#ff0000" stroke="#000000" stroke-width="2" stroke-linecap="butt"/><path d="M633.70883,407.77929l-1.06398,1.06397l-3.22682,-3.22681" data-paper-data="{&quot;index&quot;:null}" fill="none" stroke="#ffffff" stroke-width="0.5" stroke-linecap="round"/><path d="M660.54288,412.02746h-13.34397" data-paper-data="{&quot;index&quot;:null}" fill="none" stroke="#6f0000" stroke-width="3" stroke-linecap="round"/><path d="M641.58404,412.02746h-13.78669" data-paper-data="{&quot;index&quot;:null}" fill="none" stroke="#6f0000" stroke-width="3" stroke-linecap="round"/><path d="M678.17936,350.18073c0,-4.05297 3.28558,-7.33855 7.33855,-7.33855c4.05297,0 7.33855,3.28558 7.33855,7.33855c0,4.05297 -3.28558,7.33855 -7.33855,7.33855c-4.05297,0 -7.33855,-3.28558 -7.33855,-7.33855z" fill="#ffc366" stroke="#000000" stroke-width="4.5" stroke-linecap="butt"/><path d="M621.62392,345.48438c-0.45693,-0.75637 -0.14712,-5.57419 -0.04113,-6.06703c0.73932,-3.43775 4.30434,-6.4839 5.10358,-5.01079c1.63773,3.01855 29.93043,13.65127 35.55043,13.87609c5.27849,0.21115 3.22793,12.05313 1.9202,12.24535c-2.27712,0.33471 -15.59377,-2.29356 -23.5895,-4.81155c-3.75235,-1.18167 -16.15318,-5.61306 -18.94357,-10.23208z" data-paper-data="{&quot;index&quot;:null}" fill="#1a1a1a" stroke="#000000" stroke-width="2.5" stroke-linecap="butt"/><path d="M656.14099,333.15938l18.07505,12.53775l-1.87934,-5.73759l28.15429,19.24399l-21.43047,-8.78721l2.43586,4.434l-18.58429,-8.28861l-6.77111,-13.40235" fill="#faec00" stroke="none" stroke-width="0.66342" stroke-linecap="butt"/><path d="M660.4434,351.2127c1.59001,-3.72806 5.90116,-5.46129 9.62922,-3.87128c3.72806,1.59001 5.46129,5.90115 3.87129,9.62921c-1.59001,3.72806 -5.90115,5.46129 -9.62921,3.87129c-3.72806,-1.59001 -5.46129,-5.90115 -3.87129,-9.62922z" data-paper-data="{&quot;index&quot;:null}" fill="#ffc366" stroke="#000000" stroke-width="4.5" stroke-linecap="butt"/><path d="M697.69878,335.85124l10.46611,7.25982l-1.0882,-3.32227l16.30236,11.14297l-12.40902,-5.08812l1.41045,2.56745l-10.76098,-4.79941l-3.92072,-7.76045" fill="#faec00" stroke="none" stroke-width="0.66342" stroke-linecap="butt"/><path d="M666.63416,326.33336l7.52645,5.22072l-0.78255,-2.38913l11.72345,8.0132l-8.92365,-3.65899l1.01429,1.84632l-7.7385,-3.45138l-2.81949,-5.58074" fill="#faec00" stroke="none" stroke-width="0.66342" stroke-linecap="butt"/><path d="M675.96191,362.20468l7.52645,5.22072l-0.78255,-2.38913l11.72344,8.0132l-8.92364,-3.659l1.01429,1.84632l-7.73849,-3.45138l-2.8195,-5.58074" fill="#faec00" stroke="none" stroke-width="0.66342" stroke-linecap="butt"/></g></g></svg>