<svg version="1.1" xmlns="http://www.w3.org/2000/svg" xmlns:xlink="http://www.w3.org/1999/xlink" width="58.5007" height="56.07123" viewBox="0,0,58.5007,56.07123"><defs><linearGradient x1="578.25025" y1="360.0002" x2="669.25025" y2="360.0002" gradientUnits="userSpaceOnUse" id="color-1"><stop offset="0.012" stop-color="#a7a9ac"/><stop offset="1" stop-color="#414042"/></linearGradient><linearGradient x1="581.66335" y1="359.9993" x2="665.83625" y2="359.9993" gradientUnits="userSpaceOnUse" id="color-2"><stop offset="0" stop-color="#d1d2d3"/><stop offset="1" stop-color="#a4a5a8"/></linearGradient></defs><g transform="translate(-610.74965,-331.26477)"><g data-paper-data="{&quot;isPaintingLayer&quot;:true}" fill-rule="nonzero" stroke-linejoin="miter" stroke-miterlimit="10" stroke-dasharray="" stroke-dashoffset="0" style="mix-blend-mode: normal"><path d="M669.25035,378.731c0,4.752 -3.854,8.605 -8.605,8.605c0,0 -26.3686,0 -36.18151,0c-2.67667,0 -5.11019,0 -5.11019,0c-4.752,0 -8.604,-3.854 -8.604,-8.605c0,0 0,-5.60523 0,-9.65556c0,-6.87358 0,-27.80744 0,-27.80744c0,-4.752 3.852,-8.604 8.604,-8.604c0,0 1.35005,0 3.01736,0c8.07492,0 38.27334,0 38.27334,0c4.754,0 8.605,3.852 8.605,8.604v37.463z" fill="url(#color-1)" stroke="none" stroke-width="1" stroke-linecap="butt"/><path d="M665.83535,341.268v37.462c0,2.862 -2.327,5.19 -5.191,5.19c0,0 -26.36769,0 -36.18052,0c-2.67667,0 -5.11019,0 -5.11019,0c-2.861,0 -5.19,-2.328 -5.19,-5.19v-37.463c0,-2.862 2.329,-5.19 5.19,-5.19c0,0 1.41137,0 3.14047,0c8.20123,0 38.15023,0 38.15023,0c2.864,0 5.191,2.329 5.191,5.191z" fill="url(#color-2)" stroke="none" stroke-width="1" stroke-linecap="butt"/><text transform="translate(615.00509,353.01477) scale(0.5,0.5)" font-size="40" xml:space="preserve" fill="#ff6666" fill-rule="nonzero" stroke="none" stroke-width="1" stroke-linecap="butt" stroke-linejoin="miter" stroke-miterlimit="10" stroke-dasharray="" stroke-dashoffset="0" font-family="Sans Serif" font-weight="normal" text-anchor="start" style="mix-blend-mode: normal"><tspan x="0" dy="0">Ge</tspan></text><path d="M642.11413,380.05119v-25.04876l13.37987,0.10266l6.19375,5.44092l0.13688,19.50518z" fill="#41a24c" stroke="#000000" stroke-width="1.5" stroke-linecap="butt"/><path d="M656.90988,365.88526v-8.38145l3.08333,2.75777v5.62368z" fill="#ddbd00" stroke="#000000" stroke-width="1" stroke-linecap="butt"/><path d="M644.30484,365.74743v-8.38144h3.08333v8.38144z" fill="#ddbd00" stroke="#000000" stroke-width="1" stroke-linecap="butt"/><path d="M648.45713,365.77414v-8.38144h3.08333v8.38144z" fill="#ddbd00" stroke="#000000" stroke-width="1" stroke-linecap="butt"/><path d="M652.69627,365.80085v-8.38144h3.08333v8.38144z" fill="#ddbd00" stroke="#000000" stroke-width="1" stroke-linecap="butt"/><path d="M645.44516,368.73095v8.71688" fill="none" stroke="#8a8a8a" stroke-width="1" stroke-linecap="round"/><path d="M646.31726,368.74792v8.71688" fill="none" stroke="#8a8a8a" stroke-width="1" stroke-linecap="round"/><path d="M647.19999,368.7755v8.71688" fill="none" stroke="#8a8a8a" stroke-width="1" stroke-linecap="round"/><path d="M648.07209,368.79247v8.71688" fill="none" stroke="#8a8a8a" stroke-width="1" stroke-linecap="round"/><path d="M648.91026,368.7755v8.71688" fill="none" stroke="#8a8a8a" stroke-width="1" stroke-linecap="round"/><path d="M649.78236,368.79247v8.71688" fill="none" stroke="#8a8a8a" stroke-width="1" stroke-linecap="round"/><path d="M650.66508,368.82005v8.71688" fill="none" stroke="#8a8a8a" stroke-width="1" stroke-linecap="round"/><path d="M651.53719,368.83702v8.71688" fill="none" stroke="#8a8a8a" stroke-width="1" stroke-linecap="round"/><path d="M652.41356,368.88584v8.71688" fill="none" stroke="#8a8a8a" stroke-width="1" stroke-linecap="round"/><path d="M653.28567,368.90281v8.71688" fill="none" stroke="#8a8a8a" stroke-width="1" stroke-linecap="round"/><path d="M654.16839,368.93039v8.71688" fill="none" stroke="#8a8a8a" stroke-width="1" stroke-linecap="round"/><path d="M655.04049,368.94736v8.71688" fill="none" stroke="#8a8a8a" stroke-width="1" stroke-linecap="round"/><path d="M655.87866,368.93039v8.71688" fill="none" stroke="#8a8a8a" stroke-width="1" stroke-linecap="round"/><path d="M656.75076,368.94736v8.71688" fill="none" stroke="#8a8a8a" stroke-width="1" stroke-linecap="round"/><path d="M657.63349,368.97494v8.71688" fill="none" stroke="#8a8a8a" stroke-width="1" stroke-linecap="round"/><path d="M658.50559,368.99191v8.71688" fill="none" stroke="#8a8a8a" stroke-width="1" stroke-linecap="round"/><path d="M644.66192,376.62028v-6.97386h14.75801v6.97386z" fill="#1f1f1f" stroke="#000000" stroke-width="1" stroke-linecap="butt"/><text transform="translate(649.02362,375.99808) scale(0.04154,0.04154)" font-size="40" xml:space="preserve" fill="#ffffff" fill-rule="nonzero" stroke="none" stroke-width="1" stroke-linecap="butt" stroke-linejoin="miter" stroke-miterlimit="10" stroke-dasharray="" stroke-dashoffset="0" font-family="Pixel" font-weight="normal" text-anchor="start" style="mix-blend-mode: normal"><tspan x="0" dy="0">Luminus 2D</tspan><tspan x="0" dy="46.15px"> </tspan></text></g></g></svg>